<svg id="Layer_1" height="512" viewBox="0 0 512 512" width="512" xmlns="http://www.w3.org/2000/svg" xmlns:xlink="http://www.w3.org/1999/xlink" data-name="Layer 1"><linearGradient id="linear-gradient" gradientUnits="userSpaceOnUse" x1="193.823" x2="193.823" y1="480.611" y2="22.42"><stop offset=".322" stop-color="#a163f5"/><stop offset=".466" stop-color="#b074ee"/><stop offset=".752" stop-color="#d8a1dd"/><stop offset=".898" stop-color="#efbad3"/></linearGradient><linearGradient id="linear-gradient-2" x1="121.738" x2="121.738" xlink:href="#linear-gradient" y1="480.611" y2="22.42"/><linearGradient id="linear-gradient-3" x1="256" x2="256" xlink:href="#linear-gradient" y1="480.611" y2="22.42"/><path d="m203.407 269.785a119.7 119.7 0 0 1 -18.095-1.606 6 6 0 1 0 -1.982 11.836 131.654 131.654 0 0 0 19.917 1.768h.082a6 6 0 0 0 .078-12z" fill="url(#linear-gradient)"/><path d="m162.258 264.848c-31.787-3.554-58.962-8.66-78.589-14.764a6 6 0 0 0 -3.569 11.459c20.342 6.326 48.29 11.594 80.82 15.23a5.915 5.915 0 0 0 .675.039 6 6 0 0 0 .659-11.964z" fill="url(#linear-gradient-2)"/><path d="m383.039 294.646c11.531-1.586 22.427-3.4 32.532-5.425 46.846-9.4 70.6-22.108 70.6-37.761 0-11.42-11.982-20.93-36.632-29.074-20.018-6.613-47.958-12.1-81.031-15.94a110.271 110.271 0 0 0 -32.986-73.92 113.131 113.131 0 0 0 -9.175-8.1l34.6-64.705a24.117 24.117 0 1 0 -10.409-5.981l-34.058 63.7a115.164 115.164 0 0 0 -120.163-.929l-33.429-62.762a24.1 24.1 0 1 0 -10.411 5.979l33.875 63.612a112.647 112.647 0 0 0 -10.566 9.222 110.509 110.509 0 0 0 -32.827 73.851c-33.253 3.847-61.338 9.358-81.419 16-24.588 8.141-36.54 17.641-36.54 29.047 0 15.653 23.753 28.357 70.6 37.761 10.812 2.17 22.523 4.093 34.957 5.757l-102.898 170.349a6 6 0 1 0 10.272 6.2l105.669-174.927a997.81 997.81 0 0 0 111.988 5.946q4.582 0 9.134-.04v191a6 6 0 0 0 12 0v-191.16c33.21-.616 64.918-2.679 93.305-6.037l105.84 175.223a6 6 0 0 0 10.272-6.2zm-15.68-270.146a12.049 12.049 0 1 1 -12.1 12.049 12.089 12.089 0 0 1 12.1-12.049zm-221.292 24.1a12.049 12.049 0 1 1 12.1-12.049 12.09 12.09 0 0 1 -12.1 12.049zm38.157 92.5a102.425 102.425 0 0 1 142.879-.016 98.386 98.386 0 0 1 29.445 66.689c-60.84 21.591-169.491 11.576-201.633.075a98.621 98.621 0 0 1 29.309-66.754zm86.5 149.346h-.014q-7.518.1-15.125.1c-40.835 0-79.966-2.182-114.082-6.27a5.964 5.964 0 0 0 -.7-.084c-15.415-1.863-29.8-4.115-42.84-6.733-19.861-3.987-36.022-8.782-46.738-13.868-13.2-6.266-14.225-10.869-14.225-12.131 0-3.82 7.414-10.735 28.31-17.651 20-6.618 48.492-12.1 82.444-15.868 31.458 12.96 150.31 24.951 215.843.02 33.826 3.762 62.215 9.225 82.176 15.819 20.96 6.925 28.4 13.852 28.4 17.68 0 1.262-1.025 5.865-14.222 12.128-10.716 5.086-26.878 9.881-46.739 13.868-38.464 7.721-88.593 12.265-142.488 12.984z" fill="url(#linear-gradient-3)"/></svg>